{
  "accessors": [
    {
      "bufferView": 2,
      "componentType": 5126,
      "count": 49,
      "max": [
        0.07859700173139572,
        -0.00953499972820282,
        1.5573500394821167
      ],
      "min": [
        -0.07619299739599228,
        -0.10679599642753601,
        1.5142600536346436
      ],
      "type": "VEC3"
    },
    {
      "bufferView": 2,
      "byteOffset": 588,
      "componentType": 5126,
      "count": 49,
      "max": [
        0.9925117492675781,
        -0.048110317438840866,
        0.20087215304374695
      ],
      "min": [
        -0.9742917418479919,
        -0.9999826550483704,
        -0.32768791913986206
      ],
      "type": "VEC3"
    },
    {
      "bufferView": 1,
      "componentType": 5126,
      "count": 49,
      "max": [
        0.9973000288009644,
        0.9915099740028381
      ],
      "min": [
        0.0007300000288523734,
        0.011850000359117985
      ],
      "type": "VEC2"
    },
    {
      "bufferView": 0,
      "componentType": 5125,
      "count": 180,
      "type": "SCALAR"
    },
    {
      "bufferView": 2,
      "byteOffset": 1176,
      "componentType": 5126,
      "count": 1819,
      "max": [
        0.6403449773788452,
        0.3383390009403229,
        1.4626599550247192
      ],
      "min": [
        -0.6403470039367676,
        -0.140858992934227,
        0.2222210019826889
      ],
      "type": "VEC3"
    },
    {
      "bufferView": 2,
      "byteOffset": 23004,
      "componentType": 5126,
      "count": 1819,
      "max": [
        1.0,
        0.9999832510948181,
        0.9997466206550598
      ],
      "min": [
        -0.9999986886978149,
        -0.9998067617416382,
        -1.0
      ],
      "type": "VEC3"
    },
    {
      "bufferView": 1,
      "byteOffset": 392,
      "componentType": 5126,
      "count": 1819,
      "max": [
        1.7984700202941895,
        0.9982900023460388
      ],
      "min": [
        0.0026400000788271427,
        0.0012799999676644802
      ],
      "type": "VEC2"
    },
    {
      "bufferView": 0,
      "byteOffset": 720,
      "componentType": 5125,
      "count": 5508,
      "type": "SCALAR"
    },
    {
      "bufferView": 2,
      "byteOffset": 44832,
      "componentType": 5126,
      "count": 3212,
      "max": [
        0.810958981513977,
        0.3250870108604431,
        1.7243000268936157
      ],
      "min": [
        -0.8109639883041382,
        -0.1954669952392578,
        0.0018889999482780695
      ],
      "type": "VEC3"
    },
    {
      "bufferView": 2,
      "byteOffset": 83376,
      "componentType": 5126,
      "count": 3212,
      "max": [
        1.0,
        0.9998772740364075,
        1.0
      ],
      "min": [
        -1.0,
        -0.9999993443489075,
        -1.0
      ],
      "type": "VEC3"
    },
    {
      "bufferView": 1,
      "byteOffset": 14944,
      "componentType": 5126,
      "count": 3212,
      "max": [
        0.9977700114250183,
        0.9981399774551392
      ],
      "min": [
        0.004040000028908253,
        0.001509999972768128
      ],
      "type": "VEC2"
    },
    {
      "bufferView": 0,
      "byteOffset": 22752,
      "componentType": 5125,
      "count": 7260,
      "type": "SCALAR"
    }
  ],
  "asset": {
    "extras": {
      "author": "ninjatorent13 (https://sketchfab.com/ninjatorent13)",
      "license": "CC-BY-4.0 (http://creativecommons.org/licenses/by/4.0/)",
      "source": "https://sketchfab.com/3d-models/naruto-sage-161369399a0d4b6e9657023a1bcbfb31",
      "title": "Naruto Sage"
    },
    "generator": "Sketchfab-12.66.0",
    "version": "2.0"
  },
  "bufferViews": [
    {
      "buffer": 0,
      "byteLength": 51792,
      "name": "floatBufferViews",
      "target": 34963
    },
    {
      "buffer": 0,
      "byteLength": 40640,
      "byteOffset": 51792,
      "byteStride": 8,
      "name": "floatBufferViews",
      "target": 34962
    },
    {
      "buffer": 0,
      "byteLength": 121920,
      "byteOffset": 92432,
      "byteStride": 12,
      "name": "floatBufferViews",
      "target": 34962
    }
  ],
  "buffers": [
    {
      "byteLength": 214352,
      "uri": "scene.bin"
    }
  ],
  "images": [
    {
      "uri": "textures/nr2_eye.png_baseColor.png"
    },
    {
      "uri": "textures/nr2_tex01.png_baseColor.png"
    },
    {
      "uri": "textures/nr2_tex02.png_baseColor.png"
    }
  ],
  "materials": [
    {
      "doubleSided": true,
      "name": "nr2_eye.png",
      "pbrMetallicRoughness": {
        "baseColorTexture": {
          "index": 0
        },
        "metallicFactor": 0.0,
        "roughnessFactor": 0.8434915419926713
      }
    },
    {
      "doubleSided": true,
      "name": "nr2_tex01.png",
      "pbrMetallicRoughness": {
        "baseColorTexture": {
          "index": 1
        },
        "metallicFactor": 0.0,
        "roughnessFactor": 0.8434915419926713
      }
    },
    {
      "doubleSided": true,
      "name": "nr2_tex02.png",
      "pbrMetallicRoughness": {
        "baseColorTexture": {
          "index": 2
        },
        "metallicFactor": 0.0,
        "roughnessFactor": 0.8434915419926713
      }
    }
  ],
  "meshes": [
    {
      "name": "Object_0",
      "primitives": [
        {
          "attributes": {
            "NORMAL": 1,
            "POSITION": 0,
            "TEXCOORD_0": 2
          },
          "indices": 3,
          "material": 0,
          "mode": 4
        }
      ]
    },
    {
      "name": "Object_1",
      "primitives": [
        {
          "attributes": {
            "NORMAL": 5,
            "POSITION": 4,
            "TEXCOORD_0": 6
          },
          "indices": 7,
          "material": 1,
          "mode": 4
        }
      ]
    },
    {
      "name": "Object_2",
      "primitives": [
        {
          "attributes": {
            "NORMAL": 9,
            "POSITION": 8,
            "TEXCOORD_0": 10
          },
          "indices": 11,
          "material": 2,
          "mode": 4
        }
      ]
    }
  ],
  "nodes": [
    {
      "children": [
        1
      ],
      "matrix": [
        1.0,
        0.0,
        0.0,
        0.0,
        0.0,
        2.220446049250313e-16,
        -1.0,
        0.0,
        0.0,
        1.0,
        2.220446049250313e-16,
        0.0,
        0.0,
        0.0,
        0.0,
        1.0
      ],
      "name": "Sketchfab_model"
    },
    {
      "children": [
        2,
        3,
        4
      ],
      "name": "Naruto.obj.cleaner.materialmerger.gles"
    },
    {
      "mesh": 0,
      "name": "Object_2"
    },
    {
      "mesh": 1,
      "name": "Object_3"
    },
    {
      "mesh": 2,
      "name": "Object_4"
    }
  ],
  "samplers": [
    {
      "magFilter": 9729,
      "minFilter": 9987,
      "wrapS": 10497,
      "wrapT": 10497
    }
  ],
  "scene": 0,
  "scenes": [
    {
      "name": "Sketchfab_Scene",
      "nodes": [
        0
      ]
    }
  ],
  "textures": [
    {
      "sampler": 0,
      "source": 0
    },
    {
      "sampler": 0,
      "source": 1
    },
    {
      "sampler": 0,
      "source": 2
    }
  ]
}
